<svg id="Layer_1" data-name="Layer 1" xmlns="http://www.w3.org/2000/svg" viewBox="0 0 300 92"><defs><style>.cls-1,.cls-2,.cls-3{fill:#686868;}.cls-2{stroke:#666;stroke-miterlimit:10;stroke-width:2px;}.cls-3{font-size:46.51px;font-family:OCRAExtended, OCR A Extended;}</style></defs><path class="cls-1" d="M34.24,84H60a2,2,0,0,0,1.58-.79L78,61.06l.08-.12L97.11,30.6a5,5,0,0,0-1.91-7.14l-7.74-5.37A48,48,0,0,0,78,13L67.35,8.71A2,2,0,0,0,65,9.13L49.56,26.27a1.94,1.94,0,0,0,.41,3l1.91,1.2a5.11,5.11,0,0,1,1.76,6.82l-2.57,4.63a1.88,1.88,0,0,1-.16.23L34.55,63.58a1.84,1.84,0,0,1-.79.62l-9.44,4a22.11,22.11,0,0,0-10.6,9.52L11.85,81a2,2,0,0,0,1.58,3Z"/><path class="cls-2" d="M59,83H287"/><text class="cls-3" transform="translate(80.41 78.93) scale(0.98 1)">Shoe Day</text></svg>